<mxfile host="app.diagrams.net" modified="2023-10-23T05:01:58.103Z" agent="Mozilla/5.0 (Windows NT 10.0; Win64; x64) AppleWebKit/537.36 (KHTML, like Gecko) Chrome/118.0.0.0 Safari/537.36" etag="U3PK0rCAetOcGdS0C46T" version="22.0.6" type="device">
  <diagram name="Page-1" id="42789a77-a242-8287-6e28-9cd8cfd52e62">
    <mxGraphModel dx="2074" dy="1110" grid="1" gridSize="10" guides="1" tooltips="1" connect="1" arrows="1" fold="1" page="1" pageScale="1" pageWidth="1100" pageHeight="850" background="none" math="0" shadow="0">
      <root>
        <mxCell id="0" />
        <mxCell id="1" parent="0" />
        <mxCell id="oA0V6Ype_RuarI1uSLix-1" value="&lt;font style=&quot;font-size: 16px;&quot;&gt;SALT&lt;/font&gt;" style="ellipse;whiteSpace=wrap;html=1;" parent="1" vertex="1">
          <mxGeometry x="430" y="190" width="120" height="80" as="geometry" />
        </mxCell>
        <mxCell id="oA0V6Ype_RuarI1uSLix-2" value="&lt;font style=&quot;font-size: 16px;&quot;&gt;LOSA&lt;/font&gt;" style="ellipse;whiteSpace=wrap;html=1;" parent="1" vertex="1">
          <mxGeometry x="310" y="370" width="120" height="80" as="geometry" />
        </mxCell>
        <mxCell id="oA0V6Ype_RuarI1uSLix-3" value="&lt;font style=&quot;font-size: 16px;&quot;&gt;DALL&lt;/font&gt;" style="ellipse;whiteSpace=wrap;html=1;" parent="1" vertex="1">
          <mxGeometry x="520" y="430" width="120" height="80" as="geometry" />
        </mxCell>
        <mxCell id="oA0V6Ype_RuarI1uSLix-4" value="&lt;font style=&quot;font-size: 16px;&quot;&gt;ATLA&lt;/font&gt;" style="ellipse;whiteSpace=wrap;html=1;" parent="1" vertex="1">
          <mxGeometry x="730" y="370" width="120" height="80" as="geometry" />
        </mxCell>
        <mxCell id="oA0V6Ype_RuarI1uSLix-5" value="&lt;font style=&quot;font-size: 16px;&quot;&gt;STAR&lt;/font&gt;" style="ellipse;whiteSpace=wrap;html=1;" parent="1" vertex="1">
          <mxGeometry x="700" y="90" width="120" height="80" as="geometry" />
        </mxCell>
        <mxCell id="oA0V6Ype_RuarI1uSLix-6" value="&lt;font style=&quot;font-size: 16px;&quot;&gt;WASH&lt;/font&gt;" style="ellipse;whiteSpace=wrap;html=1;" parent="1" vertex="1">
          <mxGeometry x="890" y="270" width="120" height="80" as="geometry" />
        </mxCell>
        <mxCell id="oA0V6Ype_RuarI1uSLix-7" value="&lt;font style=&quot;font-size: 16px;&quot;&gt;NEWY&lt;/font&gt;" style="ellipse;whiteSpace=wrap;html=1;" parent="1" vertex="1">
          <mxGeometry x="920" y="100" width="120" height="80" as="geometry" />
        </mxCell>
        <mxCell id="oA0V6Ype_RuarI1uSLix-8" value="SRI" style="rounded=1;whiteSpace=wrap;html=1;fontSize=16;" parent="1" vertex="1">
          <mxGeometry x="230" y="380" width="70" height="30" as="geometry" />
        </mxCell>
        <mxCell id="oA0V6Ype_RuarI1uSLix-9" value="LBNL" style="rounded=1;whiteSpace=wrap;html=1;fontSize=16;" parent="1" vertex="1">
          <mxGeometry x="260" y="340" width="70" height="30" as="geometry" />
        </mxCell>
        <mxCell id="oA0V6Ype_RuarI1uSLix-10" value="FIU" style="rounded=1;whiteSpace=wrap;html=1;fontSize=16;" parent="1" vertex="1">
          <mxGeometry x="780" y="530" width="70" height="30" as="geometry" />
        </mxCell>
        <mxCell id="oA0V6Ype_RuarI1uSLix-11" value="GATECH" style="rounded=1;whiteSpace=wrap;html=1;fontSize=16;" parent="1" vertex="1">
          <mxGeometry x="660" y="360" width="70" height="30" as="geometry" />
        </mxCell>
        <mxCell id="oA0V6Ype_RuarI1uSLix-12" value="KANS" style="rounded=1;whiteSpace=wrap;html=1;fontSize=16;" parent="1" vertex="1">
          <mxGeometry x="640" y="285" width="70" height="30" as="geometry" />
        </mxCell>
        <mxCell id="oA0V6Ype_RuarI1uSLix-13" value="TACC" style="rounded=1;whiteSpace=wrap;html=1;fontSize=16;" parent="1" vertex="1">
          <mxGeometry x="520" y="380" width="70" height="30" as="geometry" />
        </mxCell>
        <mxCell id="oA0V6Ype_RuarI1uSLix-14" value="UCSD" style="rounded=1;whiteSpace=wrap;html=1;fontSize=16;" parent="1" vertex="1">
          <mxGeometry x="290" y="470" width="70" height="30" as="geometry" />
        </mxCell>
        <mxCell id="oA0V6Ype_RuarI1uSLix-15" value="UTAH" style="rounded=1;whiteSpace=wrap;html=1;fontSize=16;" parent="1" vertex="1">
          <mxGeometry x="350" y="215" width="70" height="30" as="geometry" />
        </mxCell>
        <mxCell id="oA0V6Ype_RuarI1uSLix-16" value="SEAT" style="rounded=1;whiteSpace=wrap;html=1;fontSize=16;" parent="1" vertex="1">
          <mxGeometry x="330" y="90" width="70" height="30" as="geometry" />
        </mxCell>
        <mxCell id="oA0V6Ype_RuarI1uSLix-17" value="PRIN" style="rounded=1;whiteSpace=wrap;html=1;fontSize=16;" parent="1" vertex="1">
          <mxGeometry x="940" y="50" width="70" height="30" as="geometry" />
        </mxCell>
        <mxCell id="oA0V6Ype_RuarI1uSLix-18" value="GPN" style="rounded=1;whiteSpace=wrap;html=1;fontSize=16;" parent="1" vertex="1">
          <mxGeometry x="610" y="230" width="70" height="30" as="geometry" />
        </mxCell>
        <mxCell id="oA0V6Ype_RuarI1uSLix-19" value="RENCI" style="rounded=1;whiteSpace=wrap;html=1;fontSize=16;" parent="1" vertex="1">
          <mxGeometry x="915" y="370" width="70" height="30" as="geometry" />
        </mxCell>
        <mxCell id="oA0V6Ype_RuarI1uSLix-20" value="MAX" style="rounded=1;whiteSpace=wrap;html=1;fontSize=16;" parent="1" vertex="1">
          <mxGeometry x="1000" y="360" width="70" height="30" as="geometry" />
        </mxCell>
        <mxCell id="oA0V6Ype_RuarI1uSLix-21" value="CLEM" style="rounded=1;whiteSpace=wrap;html=1;fontSize=16;" parent="1" vertex="1">
          <mxGeometry x="850" y="430" width="70" height="30" as="geometry" />
        </mxCell>
        <mxCell id="oA0V6Ype_RuarI1uSLix-22" value="RUTG" style="rounded=1;whiteSpace=wrap;html=1;fontSize=16;" parent="1" vertex="1">
          <mxGeometry x="845" y="80" width="70" height="30" as="geometry" />
        </mxCell>
        <mxCell id="oA0V6Ype_RuarI1uSLix-23" value="PSC" style="rounded=1;whiteSpace=wrap;html=1;fontSize=16;" parent="1" vertex="1">
          <mxGeometry x="880" y="230" width="70" height="30" as="geometry" />
        </mxCell>
        <mxCell id="oA0V6Ype_RuarI1uSLix-24" value="EDUKY" style="rounded=1;whiteSpace=wrap;html=1;fontSize=16;" parent="1" vertex="1">
          <mxGeometry x="820" y="150" width="70" height="30" as="geometry" />
        </mxCell>
        <mxCell id="oA0V6Ype_RuarI1uSLix-25" value="UKY" style="rounded=1;whiteSpace=wrap;html=1;fontSize=16;" parent="1" vertex="1">
          <mxGeometry x="790" y="220" width="70" height="30" as="geometry" />
        </mxCell>
        <mxCell id="oA0V6Ype_RuarI1uSLix-26" value="INDI" style="rounded=1;whiteSpace=wrap;html=1;fontSize=16;" parent="1" vertex="1">
          <mxGeometry x="710" y="220" width="70" height="30" as="geometry" />
        </mxCell>
        <mxCell id="oA0V6Ype_RuarI1uSLix-27" value="NCSA" style="rounded=1;whiteSpace=wrap;html=1;fontSize=16;" parent="1" vertex="1">
          <mxGeometry x="640" y="190" width="70" height="30" as="geometry" />
        </mxCell>
        <mxCell id="oA0V6Ype_RuarI1uSLix-28" value="EDC" style="rounded=1;whiteSpace=wrap;html=1;fontSize=16;" parent="1" vertex="1">
          <mxGeometry x="610" y="130" width="70" height="30" as="geometry" />
        </mxCell>
        <mxCell id="oA0V6Ype_RuarI1uSLix-32" value="MASS" style="rounded=1;whiteSpace=wrap;html=1;fontSize=16;" parent="1" vertex="1">
          <mxGeometry x="1030" y="80" width="70" height="30" as="geometry" />
        </mxCell>
        <mxCell id="oA0V6Ype_RuarI1uSLix-34" value="" style="endArrow=none;html=1;rounded=0;fontSize=16;strokeWidth=5;fillColor=#f8cecc;strokeColor=#b85450;entryX=0.242;entryY=0.938;entryDx=0;entryDy=0;entryPerimeter=0;exitX=0.567;exitY=0;exitDx=0;exitDy=0;exitPerimeter=0;" parent="1" source="oA0V6Ype_RuarI1uSLix-2" target="oA0V6Ype_RuarI1uSLix-1" edge="1">
          <mxGeometry width="50" height="50" relative="1" as="geometry">
            <mxPoint x="400" y="360" as="sourcePoint" />
            <mxPoint x="450" y="310" as="targetPoint" />
          </mxGeometry>
        </mxCell>
        <mxCell id="oA0V6Ype_RuarI1uSLix-35" value="" style="endArrow=none;html=1;rounded=0;fontSize=16;strokeWidth=5;fillColor=#f8cecc;strokeColor=#b85450;entryX=0;entryY=1;entryDx=0;entryDy=0;exitX=1;exitY=0;exitDx=0;exitDy=0;" parent="1" source="oA0V6Ype_RuarI1uSLix-4" target="oA0V6Ype_RuarI1uSLix-6" edge="1">
          <mxGeometry width="50" height="50" relative="1" as="geometry">
            <mxPoint x="388.03999999999996" y="380" as="sourcePoint" />
            <mxPoint x="469.03999999999996" y="275.03999999999996" as="targetPoint" />
          </mxGeometry>
        </mxCell>
        <mxCell id="oA0V6Ype_RuarI1uSLix-36" value="" style="endArrow=none;html=1;rounded=0;fontSize=16;strokeWidth=5;fillColor=#f8cecc;strokeColor=#b85450;entryX=0;entryY=1;entryDx=0;entryDy=0;exitX=1;exitY=0.5;exitDx=0;exitDy=0;" parent="1" source="oA0V6Ype_RuarI1uSLix-3" target="oA0V6Ype_RuarI1uSLix-4" edge="1">
          <mxGeometry width="50" height="50" relative="1" as="geometry">
            <mxPoint x="398.03999999999996" y="390" as="sourcePoint" />
            <mxPoint x="479.03999999999996" y="285.03999999999996" as="targetPoint" />
          </mxGeometry>
        </mxCell>
        <mxCell id="oA0V6Ype_RuarI1uSLix-37" value="" style="endArrow=none;html=1;rounded=0;fontSize=16;strokeWidth=5;fillColor=#f8cecc;strokeColor=#b85450;exitX=0.983;exitY=0.288;exitDx=0;exitDy=0;exitPerimeter=0;" parent="1" source="oA0V6Ype_RuarI1uSLix-1" target="oA0V6Ype_RuarI1uSLix-5" edge="1">
          <mxGeometry width="50" height="50" relative="1" as="geometry">
            <mxPoint x="408.03999999999996" y="400" as="sourcePoint" />
            <mxPoint x="489.03999999999996" y="295.03999999999996" as="targetPoint" />
          </mxGeometry>
        </mxCell>
        <mxCell id="oA0V6Ype_RuarI1uSLix-38" value="" style="endArrow=none;html=1;rounded=0;fontSize=16;strokeWidth=5;fillColor=#f8cecc;strokeColor=#b85450;entryX=0;entryY=0.5;entryDx=0;entryDy=0;" parent="1" source="oA0V6Ype_RuarI1uSLix-2" target="oA0V6Ype_RuarI1uSLix-3" edge="1">
          <mxGeometry width="50" height="50" relative="1" as="geometry">
            <mxPoint x="409.99999999999994" y="540" as="sourcePoint" />
            <mxPoint x="490.99999999999994" y="435.03999999999996" as="targetPoint" />
          </mxGeometry>
        </mxCell>
        <mxCell id="oA0V6Ype_RuarI1uSLix-39" value="" style="endArrow=none;html=1;rounded=0;fontSize=16;strokeWidth=5;fillColor=#f8cecc;strokeColor=#b85450;entryX=1;entryY=0.5;entryDx=0;entryDy=0;exitX=0;exitY=0.5;exitDx=0;exitDy=0;" parent="1" source="oA0V6Ype_RuarI1uSLix-7" target="oA0V6Ype_RuarI1uSLix-5" edge="1">
          <mxGeometry width="50" height="50" relative="1" as="geometry">
            <mxPoint x="842.4264068711927" y="391.71572875253787" as="sourcePoint" />
            <mxPoint x="917.5735931288073" y="348.2842712474619" as="targetPoint" />
          </mxGeometry>
        </mxCell>
        <mxCell id="oA0V6Ype_RuarI1uSLix-40" value="" style="endArrow=none;html=1;rounded=0;fontSize=16;strokeWidth=5;fillColor=#f8cecc;strokeColor=#b85450;entryX=0.5;entryY=1;entryDx=0;entryDy=0;exitX=0.5;exitY=0;exitDx=0;exitDy=0;" parent="1" source="oA0V6Ype_RuarI1uSLix-6" target="oA0V6Ype_RuarI1uSLix-7" edge="1">
          <mxGeometry width="50" height="50" relative="1" as="geometry">
            <mxPoint x="852.4264068711927" y="401.71572875253787" as="sourcePoint" />
            <mxPoint x="927.5735931288073" y="358.2842712474619" as="targetPoint" />
          </mxGeometry>
        </mxCell>
        <mxCell id="oA0V6Ype_RuarI1uSLix-41" value="" style="endArrow=none;html=1;rounded=0;strokeWidth=3;fontSize=16;fillColor=#dae8fc;strokeColor=#6c8ebf;entryX=0.367;entryY=0.025;entryDx=0;entryDy=0;entryPerimeter=0;exitX=0.5;exitY=1;exitDx=0;exitDy=0;" parent="1" source="oA0V6Ype_RuarI1uSLix-13" target="oA0V6Ype_RuarI1uSLix-3" edge="1">
          <mxGeometry width="50" height="50" relative="1" as="geometry">
            <mxPoint x="520" y="390" as="sourcePoint" />
            <mxPoint x="570" y="340" as="targetPoint" />
          </mxGeometry>
        </mxCell>
        <mxCell id="oA0V6Ype_RuarI1uSLix-42" value="" style="endArrow=none;html=1;rounded=0;strokeWidth=3;fontSize=16;fillColor=#fff2cc;strokeColor=#d6b656;entryX=0.5;entryY=0;entryDx=0;entryDy=0;exitX=0.567;exitY=0.988;exitDx=0;exitDy=0;exitPerimeter=0;" parent="1" source="oA0V6Ype_RuarI1uSLix-4" target="oA0V6Ype_RuarI1uSLix-10" edge="1">
          <mxGeometry width="50" height="50" relative="1" as="geometry">
            <mxPoint x="565" y="420" as="sourcePoint" />
            <mxPoint x="574.04" y="442" as="targetPoint" />
          </mxGeometry>
        </mxCell>
        <mxCell id="oA0V6Ype_RuarI1uSLix-43" value="" style="endArrow=none;html=1;rounded=0;strokeWidth=3;fontSize=16;fillColor=#dae8fc;strokeColor=#6c8ebf;entryX=0;entryY=0.5;entryDx=0;entryDy=0;exitX=0.5;exitY=1;exitDx=0;exitDy=0;" parent="1" source="oA0V6Ype_RuarI1uSLix-11" target="oA0V6Ype_RuarI1uSLix-4" edge="1">
          <mxGeometry width="50" height="50" relative="1" as="geometry">
            <mxPoint x="565" y="420" as="sourcePoint" />
            <mxPoint x="574.04" y="442" as="targetPoint" />
          </mxGeometry>
        </mxCell>
        <mxCell id="oA0V6Ype_RuarI1uSLix-44" value="" style="endArrow=none;html=1;rounded=0;strokeWidth=3;fontSize=16;fillColor=#dae8fc;strokeColor=#6c8ebf;entryX=0;entryY=0.5;entryDx=0;entryDy=0;exitX=1;exitY=0.5;exitDx=0;exitDy=0;" parent="1" source="oA0V6Ype_RuarI1uSLix-15" target="oA0V6Ype_RuarI1uSLix-1" edge="1">
          <mxGeometry width="50" height="50" relative="1" as="geometry">
            <mxPoint x="575" y="430" as="sourcePoint" />
            <mxPoint x="584.04" y="452" as="targetPoint" />
          </mxGeometry>
        </mxCell>
        <mxCell id="oA0V6Ype_RuarI1uSLix-45" value="" style="endArrow=none;html=1;rounded=0;strokeWidth=3;fontSize=16;fillColor=#dae8fc;strokeColor=#6c8ebf;entryX=0;entryY=0;entryDx=0;entryDy=0;exitX=0.5;exitY=1;exitDx=0;exitDy=0;" parent="1" source="oA0V6Ype_RuarI1uSLix-9" target="oA0V6Ype_RuarI1uSLix-2" edge="1">
          <mxGeometry width="50" height="50" relative="1" as="geometry">
            <mxPoint x="585" y="440" as="sourcePoint" />
            <mxPoint x="594.04" y="462" as="targetPoint" />
          </mxGeometry>
        </mxCell>
        <mxCell id="oA0V6Ype_RuarI1uSLix-46" value="" style="endArrow=none;html=1;rounded=0;strokeWidth=3;fontSize=16;fillColor=#dae8fc;strokeColor=#6c8ebf;entryX=1;entryY=0.75;entryDx=0;entryDy=0;exitX=0;exitY=0.425;exitDx=0;exitDy=0;exitPerimeter=0;" parent="1" source="oA0V6Ype_RuarI1uSLix-2" target="oA0V6Ype_RuarI1uSLix-8" edge="1">
          <mxGeometry width="50" height="50" relative="1" as="geometry">
            <mxPoint x="595" y="450" as="sourcePoint" />
            <mxPoint x="604.04" y="472" as="targetPoint" />
          </mxGeometry>
        </mxCell>
        <mxCell id="oA0V6Ype_RuarI1uSLix-47" value="" style="endArrow=none;html=1;rounded=0;strokeWidth=3;fontSize=16;fillColor=#dae8fc;strokeColor=#6c8ebf;entryX=0.5;entryY=1;entryDx=0;entryDy=0;exitX=0.75;exitY=0;exitDx=0;exitDy=0;" parent="1" source="oA0V6Ype_RuarI1uSLix-14" target="oA0V6Ype_RuarI1uSLix-2" edge="1">
          <mxGeometry width="50" height="50" relative="1" as="geometry">
            <mxPoint x="605" y="460" as="sourcePoint" />
            <mxPoint x="614.04" y="482" as="targetPoint" />
          </mxGeometry>
        </mxCell>
        <mxCell id="oA0V6Ype_RuarI1uSLix-48" value="" style="endArrow=none;html=1;rounded=0;strokeWidth=3;fontSize=16;fillColor=#dae8fc;strokeColor=#6c8ebf;entryX=0;entryY=0.5;entryDx=0;entryDy=0;exitX=0.908;exitY=0.8;exitDx=0;exitDy=0;exitPerimeter=0;" parent="1" source="oA0V6Ype_RuarI1uSLix-4" target="oA0V6Ype_RuarI1uSLix-21" edge="1">
          <mxGeometry width="50" height="50" relative="1" as="geometry">
            <mxPoint x="615" y="470" as="sourcePoint" />
            <mxPoint x="624.04" y="492" as="targetPoint" />
          </mxGeometry>
        </mxCell>
        <mxCell id="oA0V6Ype_RuarI1uSLix-49" value="" style="endArrow=none;html=1;rounded=0;strokeWidth=3;fontSize=16;fillColor=#fff2cc;strokeColor=#d6b656;entryX=0.5;entryY=0;entryDx=0;entryDy=0;exitX=0.5;exitY=1;exitDx=0;exitDy=0;" parent="1" source="oA0V6Ype_RuarI1uSLix-16" target="oA0V6Ype_RuarI1uSLix-1" edge="1">
          <mxGeometry width="50" height="50" relative="1" as="geometry">
            <mxPoint x="430" y="240" as="sourcePoint" />
            <mxPoint x="440" y="240" as="targetPoint" />
          </mxGeometry>
        </mxCell>
        <mxCell id="oA0V6Ype_RuarI1uSLix-50" value="" style="endArrow=none;html=1;rounded=0;strokeWidth=3;fontSize=16;fillColor=#dae8fc;strokeColor=#6c8ebf;entryX=0.6;entryY=-0.033;entryDx=0;entryDy=0;entryPerimeter=0;exitX=0.242;exitY=0.95;exitDx=0;exitDy=0;exitPerimeter=0;" parent="1" source="oA0V6Ype_RuarI1uSLix-5" target="oA0V6Ype_RuarI1uSLix-27" edge="1">
          <mxGeometry width="50" height="50" relative="1" as="geometry">
            <mxPoint x="565" y="420" as="sourcePoint" />
            <mxPoint x="574.04" y="442" as="targetPoint" />
          </mxGeometry>
        </mxCell>
        <mxCell id="oA0V6Ype_RuarI1uSLix-51" value="" style="endArrow=none;html=1;rounded=0;strokeWidth=3;fontSize=16;fillColor=#dae8fc;strokeColor=#6c8ebf;entryX=0;entryY=0.5;entryDx=0;entryDy=0;exitX=1;exitY=1;exitDx=0;exitDy=0;" parent="1" source="oA0V6Ype_RuarI1uSLix-5" target="oA0V6Ype_RuarI1uSLix-24" edge="1">
          <mxGeometry width="50" height="50" relative="1" as="geometry">
            <mxPoint x="739.04" y="176" as="sourcePoint" />
            <mxPoint x="712" y="199.01" as="targetPoint" />
          </mxGeometry>
        </mxCell>
        <mxCell id="oA0V6Ype_RuarI1uSLix-52" value="" style="endArrow=none;html=1;rounded=0;strokeWidth=3;fontSize=16;fillColor=#dae8fc;strokeColor=#6c8ebf;entryX=0.25;entryY=0;entryDx=0;entryDy=0;exitX=0.708;exitY=0.95;exitDx=0;exitDy=0;exitPerimeter=0;" parent="1" source="oA0V6Ype_RuarI1uSLix-5" target="oA0V6Ype_RuarI1uSLix-25" edge="1">
          <mxGeometry width="50" height="50" relative="1" as="geometry">
            <mxPoint x="749.04" y="186" as="sourcePoint" />
            <mxPoint x="722" y="209.01" as="targetPoint" />
          </mxGeometry>
        </mxCell>
        <mxCell id="oA0V6Ype_RuarI1uSLix-53" value="" style="endArrow=none;html=1;rounded=0;strokeWidth=3;fontSize=16;fillColor=#dae8fc;strokeColor=#6c8ebf;exitX=0.5;exitY=1;exitDx=0;exitDy=0;entryX=0.5;entryY=0;entryDx=0;entryDy=0;" parent="1" source="oA0V6Ype_RuarI1uSLix-5" target="oA0V6Ype_RuarI1uSLix-26" edge="1">
          <mxGeometry width="50" height="50" relative="1" as="geometry">
            <mxPoint x="759.04" y="196" as="sourcePoint" />
            <mxPoint x="760" y="219" as="targetPoint" />
          </mxGeometry>
        </mxCell>
        <mxCell id="oA0V6Ype_RuarI1uSLix-54" value="" style="endArrow=none;html=1;rounded=0;strokeWidth=3;fontSize=16;fillColor=#dae8fc;strokeColor=#6c8ebf;entryX=1;entryY=0.5;entryDx=0;entryDy=0;exitX=0;exitY=0.5;exitDx=0;exitDy=0;" parent="1" source="oA0V6Ype_RuarI1uSLix-5" target="oA0V6Ype_RuarI1uSLix-28" edge="1">
          <mxGeometry width="50" height="50" relative="1" as="geometry">
            <mxPoint x="739.04" y="176" as="sourcePoint" />
            <mxPoint x="712" y="199.01" as="targetPoint" />
          </mxGeometry>
        </mxCell>
        <mxCell id="oA0V6Ype_RuarI1uSLix-55" value="" style="endArrow=none;html=1;rounded=0;strokeWidth=3;fontSize=16;fillColor=#dae8fc;strokeColor=#6c8ebf;exitX=0.614;exitY=1.033;exitDx=0;exitDy=0;exitPerimeter=0;entryX=0.5;entryY=0;entryDx=0;entryDy=0;" parent="1" source="oA0V6Ype_RuarI1uSLix-17" target="oA0V6Ype_RuarI1uSLix-7" edge="1">
          <mxGeometry width="50" height="50" relative="1" as="geometry">
            <mxPoint x="770" y="180" as="sourcePoint" />
            <mxPoint x="770" y="229" as="targetPoint" />
          </mxGeometry>
        </mxCell>
        <mxCell id="oA0V6Ype_RuarI1uSLix-56" value="" style="endArrow=none;html=1;rounded=0;strokeWidth=3;fontSize=16;fillColor=#dae8fc;strokeColor=#6c8ebf;exitX=0;exitY=0.5;exitDx=0;exitDy=0;entryX=0.708;entryY=0.025;entryDx=0;entryDy=0;entryPerimeter=0;" parent="1" source="oA0V6Ype_RuarI1uSLix-32" target="oA0V6Ype_RuarI1uSLix-7" edge="1">
          <mxGeometry width="50" height="50" relative="1" as="geometry">
            <mxPoint x="992.98" y="90.99000000000001" as="sourcePoint" />
            <mxPoint x="990" y="110" as="targetPoint" />
          </mxGeometry>
        </mxCell>
        <mxCell id="oA0V6Ype_RuarI1uSLix-57" value="" style="endArrow=none;html=1;rounded=0;strokeWidth=3;fontSize=16;fillColor=#dae8fc;strokeColor=#6c8ebf;exitX=1;exitY=0.5;exitDx=0;exitDy=0;entryX=0;entryY=0;entryDx=0;entryDy=0;" parent="1" source="oA0V6Ype_RuarI1uSLix-22" target="oA0V6Ype_RuarI1uSLix-7" edge="1">
          <mxGeometry width="50" height="50" relative="1" as="geometry">
            <mxPoint x="1002.98" y="100.99000000000001" as="sourcePoint" />
            <mxPoint x="1000" y="120" as="targetPoint" />
          </mxGeometry>
        </mxCell>
        <mxCell id="oA0V6Ype_RuarI1uSLix-58" value="" style="endArrow=none;html=1;rounded=0;strokeWidth=3;fontSize=16;fillColor=#dae8fc;strokeColor=#6c8ebf;exitX=0.5;exitY=1;exitDx=0;exitDy=0;entryX=0;entryY=0;entryDx=0;entryDy=0;" parent="1" source="oA0V6Ype_RuarI1uSLix-23" target="oA0V6Ype_RuarI1uSLix-6" edge="1">
          <mxGeometry width="50" height="50" relative="1" as="geometry">
            <mxPoint x="925" y="105" as="sourcePoint" />
            <mxPoint x="947.5735931288073" y="121.7157287525381" as="targetPoint" />
          </mxGeometry>
        </mxCell>
        <mxCell id="oA0V6Ype_RuarI1uSLix-59" value="" style="endArrow=none;html=1;rounded=0;strokeWidth=3;fontSize=16;fillColor=#dae8fc;strokeColor=#6c8ebf;entryX=0.5;entryY=0;entryDx=0;entryDy=0;" parent="1" target="oA0V6Ype_RuarI1uSLix-19" edge="1">
          <mxGeometry width="50" height="50" relative="1" as="geometry">
            <mxPoint x="950" y="350" as="sourcePoint" />
            <mxPoint x="957.5735931288073" y="131.7157287525381" as="targetPoint" />
          </mxGeometry>
        </mxCell>
        <mxCell id="oA0V6Ype_RuarI1uSLix-60" value="" style="endArrow=none;html=1;rounded=0;strokeWidth=3;fontSize=16;fillColor=#dae8fc;strokeColor=#6c8ebf;exitX=1;exitY=1;exitDx=0;exitDy=0;entryX=0.357;entryY=-0.1;entryDx=0;entryDy=0;entryPerimeter=0;" parent="1" source="oA0V6Ype_RuarI1uSLix-6" target="oA0V6Ype_RuarI1uSLix-20" edge="1">
          <mxGeometry width="50" height="50" relative="1" as="geometry">
            <mxPoint x="945" y="125" as="sourcePoint" />
            <mxPoint x="967.5735931288073" y="141.7157287525381" as="targetPoint" />
          </mxGeometry>
        </mxCell>
        <mxCell id="oA0V6Ype_RuarI1uSLix-61" value="" style="endArrow=none;html=1;rounded=0;strokeWidth=3;fontSize=16;fillColor=#fff2cc;strokeColor=#d6b656;entryX=0.5;entryY=1;entryDx=0;entryDy=0;exitX=0.7;exitY=0.038;exitDx=0;exitDy=0;exitPerimeter=0;" parent="1" source="oA0V6Ype_RuarI1uSLix-3" target="oA0V6Ype_RuarI1uSLix-12" edge="1">
          <mxGeometry width="50" height="50" relative="1" as="geometry">
            <mxPoint x="705" y="400" as="sourcePoint" />
            <mxPoint x="740" y="420" as="targetPoint" />
          </mxGeometry>
        </mxCell>
        <mxCell id="oA0V6Ype_RuarI1uSLix-62" value="" style="endArrow=none;html=1;rounded=0;strokeWidth=3;fontSize=16;fillColor=#fff2cc;strokeColor=#d6b656;entryX=0;entryY=0.5;entryDx=0;entryDy=0;exitX=1;exitY=1;exitDx=0;exitDy=0;" parent="1" source="oA0V6Ype_RuarI1uSLix-1" target="oA0V6Ype_RuarI1uSLix-12" edge="1">
          <mxGeometry width="50" height="50" relative="1" as="geometry">
            <mxPoint x="614" y="443.03999999999996" as="sourcePoint" />
            <mxPoint x="685" y="325" as="targetPoint" />
          </mxGeometry>
        </mxCell>
        <mxCell id="oA0V6Ype_RuarI1uSLix-63" value="" style="endArrow=none;html=1;rounded=0;strokeWidth=3;fontSize=16;fillColor=#fff2cc;strokeColor=#d6b656;exitX=0.383;exitY=0.975;exitDx=0;exitDy=0;entryX=0.5;entryY=0;entryDx=0;entryDy=0;exitPerimeter=0;" parent="1" source="oA0V6Ype_RuarI1uSLix-5" target="oA0V6Ype_RuarI1uSLix-12" edge="1">
          <mxGeometry width="50" height="50" relative="1" as="geometry">
            <mxPoint x="770" y="180" as="sourcePoint" />
            <mxPoint x="770" y="229" as="targetPoint" />
          </mxGeometry>
        </mxCell>
        <mxCell id="oA0V6Ype_RuarI1uSLix-64" value="" style="endArrow=none;html=1;rounded=0;strokeWidth=3;fontSize=16;fillColor=#dae8fc;strokeColor=#6c8ebf;entryX=0.25;entryY=0;entryDx=0;entryDy=0;exitX=0.5;exitY=1;exitDx=0;exitDy=0;" parent="1" source="oA0V6Ype_RuarI1uSLix-18" target="oA0V6Ype_RuarI1uSLix-12" edge="1">
          <mxGeometry width="50" height="50" relative="1" as="geometry">
            <mxPoint x="710" y="140" as="sourcePoint" />
            <mxPoint x="690" y="155" as="targetPoint" />
          </mxGeometry>
        </mxCell>
        <mxCell id="oA0V6Ype_RuarI1uSLix-65" value="" style="endArrow=none;html=1;rounded=0;strokeWidth=3;fontSize=16;fillColor=#fff2cc;strokeColor=#d6b656;entryX=0.325;entryY=0.013;entryDx=0;entryDy=0;exitX=0.25;exitY=1;exitDx=0;exitDy=0;entryPerimeter=0;" parent="1" source="oA0V6Ype_RuarI1uSLix-16" target="oA0V6Ype_RuarI1uSLix-2" edge="1">
          <mxGeometry width="50" height="50" relative="1" as="geometry">
            <mxPoint x="375" y="130" as="sourcePoint" />
            <mxPoint x="500" y="200" as="targetPoint" />
          </mxGeometry>
        </mxCell>
        <mxCell id="oA0V6Ype_RuarI1uSLix-66" value="" style="endArrow=none;html=1;rounded=0;strokeWidth=3;fontSize=16;fillColor=#fff2cc;strokeColor=#d6b656;entryX=0.5;entryY=0;entryDx=0;entryDy=0;exitX=0.625;exitY=0.975;exitDx=0;exitDy=0;exitPerimeter=0;" parent="1" source="oA0V6Ype_RuarI1uSLix-5" target="oA0V6Ype_RuarI1uSLix-4" edge="1">
          <mxGeometry width="50" height="50" relative="1" as="geometry">
            <mxPoint x="794.96" y="176" as="sourcePoint" />
            <mxPoint x="810" y="215" as="targetPoint" />
          </mxGeometry>
        </mxCell>
        <mxCell id="oA0V6Ype_RuarI1uSLix-67" value="" style="endArrow=none;html=1;rounded=0;strokeWidth=3;fontSize=16;fillColor=#fff2cc;strokeColor=#d6b656;entryX=0.017;entryY=0.3;entryDx=0;entryDy=0;exitX=0.783;exitY=0.913;exitDx=0;exitDy=0;exitPerimeter=0;entryPerimeter=0;" parent="1" source="oA0V6Ype_RuarI1uSLix-5" target="oA0V6Ype_RuarI1uSLix-6" edge="1">
          <mxGeometry width="50" height="50" relative="1" as="geometry">
            <mxPoint x="785" y="178" as="sourcePoint" />
            <mxPoint x="800" y="380" as="targetPoint" />
          </mxGeometry>
        </mxCell>
        <mxCell id="oA0V6Ype_RuarI1uSLix-68" value="TOKY" style="rounded=1;whiteSpace=wrap;html=1;fontSize=16;" parent="1" vertex="1">
          <mxGeometry x="120" y="410" width="70" height="30" as="geometry" />
        </mxCell>
        <mxCell id="oA0V6Ype_RuarI1uSLix-69" value="HAWI" style="rounded=1;whiteSpace=wrap;html=1;fontSize=16;" parent="1" vertex="1">
          <mxGeometry x="40" y="470" width="70" height="30" as="geometry" />
        </mxCell>
        <mxCell id="oA0V6Ype_RuarI1uSLix-70" value="" style="endArrow=none;html=1;rounded=0;strokeWidth=3;fontSize=16;fillColor=#fff2cc;strokeColor=#d6b656;entryX=0.4;entryY=-0.067;entryDx=0;entryDy=0;exitX=0;exitY=0.75;exitDx=0;exitDy=0;entryPerimeter=0;" parent="1" source="oA0V6Ype_RuarI1uSLix-16" target="oA0V6Ype_RuarI1uSLix-69" edge="1">
          <mxGeometry width="50" height="50" relative="1" as="geometry">
            <mxPoint x="357.5" y="130" as="sourcePoint" />
            <mxPoint x="359" y="381.03999999999996" as="targetPoint" />
          </mxGeometry>
        </mxCell>
        <mxCell id="oA0V6Ype_RuarI1uSLix-71" value="" style="endArrow=none;html=1;rounded=0;strokeWidth=3;fontSize=16;fillColor=#fff2cc;strokeColor=#d6b656;entryX=0;entryY=1;entryDx=0;entryDy=0;exitX=1;exitY=0.5;exitDx=0;exitDy=0;" parent="1" source="oA0V6Ype_RuarI1uSLix-69" target="oA0V6Ype_RuarI1uSLix-2" edge="1">
          <mxGeometry width="50" height="50" relative="1" as="geometry">
            <mxPoint x="367.5" y="140" as="sourcePoint" />
            <mxPoint x="369" y="391.03999999999996" as="targetPoint" />
          </mxGeometry>
        </mxCell>
        <mxCell id="oA0V6Ype_RuarI1uSLix-73" value="" style="endArrow=none;dashed=1;html=1;rounded=0;strokeWidth=3;fontSize=16;exitX=0.5;exitY=0;exitDx=0;exitDy=0;entryX=0.157;entryY=0.967;entryDx=0;entryDy=0;entryPerimeter=0;" parent="1" source="oA0V6Ype_RuarI1uSLix-68" target="oA0V6Ype_RuarI1uSLix-16" edge="1">
          <mxGeometry width="50" height="50" relative="1" as="geometry">
            <mxPoint x="520" y="390" as="sourcePoint" />
            <mxPoint x="570" y="340" as="targetPoint" />
          </mxGeometry>
        </mxCell>
        <mxCell id="oA0V6Ype_RuarI1uSLix-74" value="" style="endArrow=none;dashed=1;html=1;rounded=0;strokeWidth=3;fontSize=16;exitX=1;exitY=0.25;exitDx=0;exitDy=0;entryX=0;entryY=0.5;entryDx=0;entryDy=0;" parent="1" source="oA0V6Ype_RuarI1uSLix-68" target="oA0V6Ype_RuarI1uSLix-2" edge="1">
          <mxGeometry width="50" height="50" relative="1" as="geometry">
            <mxPoint x="165" y="420" as="sourcePoint" />
            <mxPoint x="350.9899999999998" y="129.01" as="targetPoint" />
          </mxGeometry>
        </mxCell>
        <mxCell id="oA0V6Ype_RuarI1uSLix-75" value="BRIST" style="rounded=1;whiteSpace=wrap;html=1;fontSize=16;" parent="1" vertex="1">
          <mxGeometry x="1110" y="140" width="70" height="30" as="geometry" />
        </mxCell>
        <mxCell id="oA0V6Ype_RuarI1uSLix-76" value="AMST" style="rounded=1;whiteSpace=wrap;html=1;fontSize=16;" parent="1" vertex="1">
          <mxGeometry x="1180" y="100" width="70" height="30" as="geometry" />
        </mxCell>
        <mxCell id="oA0V6Ype_RuarI1uSLix-77" value="CERN" style="rounded=1;whiteSpace=wrap;html=1;fontSize=16;" parent="1" vertex="1">
          <mxGeometry x="1190" y="185" width="70" height="30" as="geometry" />
        </mxCell>
        <mxCell id="oA0V6Ype_RuarI1uSLix-80" value="" style="endArrow=none;dashed=1;html=1;rounded=0;strokeWidth=3;fontSize=16;exitX=1;exitY=1;exitDx=0;exitDy=0;entryX=0;entryY=0.5;entryDx=0;entryDy=0;" parent="1" source="oA0V6Ype_RuarI1uSLix-7" target="oA0V6Ype_RuarI1uSLix-77" edge="1">
          <mxGeometry width="50" height="50" relative="1" as="geometry">
            <mxPoint x="200" y="427.5" as="sourcePoint" />
            <mxPoint x="320" y="420" as="targetPoint" />
          </mxGeometry>
        </mxCell>
        <mxCell id="oA0V6Ype_RuarI1uSLix-81" value="" style="endArrow=none;dashed=1;html=1;rounded=0;strokeWidth=3;fontSize=16;exitX=1.025;exitY=0.425;exitDx=0;exitDy=0;entryX=0;entryY=0.5;entryDx=0;entryDy=0;exitPerimeter=0;" parent="1" source="oA0V6Ype_RuarI1uSLix-7" target="oA0V6Ype_RuarI1uSLix-76" edge="1">
          <mxGeometry width="50" height="50" relative="1" as="geometry">
            <mxPoint x="1049.04" y="169.03999999999996" as="sourcePoint" />
            <mxPoint x="1200" y="210" as="targetPoint" />
          </mxGeometry>
        </mxCell>
        <mxCell id="oA0V6Ype_RuarI1uSLix-82" value="" style="endArrow=none;dashed=1;html=1;rounded=0;strokeWidth=3;fontSize=16;exitX=0.983;exitY=0.638;exitDx=0;exitDy=0;entryX=0;entryY=0.5;entryDx=0;entryDy=0;exitPerimeter=0;" parent="1" source="oA0V6Ype_RuarI1uSLix-7" target="oA0V6Ype_RuarI1uSLix-75" edge="1">
          <mxGeometry width="50" height="50" relative="1" as="geometry">
            <mxPoint x="1053" y="144" as="sourcePoint" />
            <mxPoint x="1190" y="125" as="targetPoint" />
          </mxGeometry>
        </mxCell>
        <mxCell id="oA0V6Ype_RuarI1uSLix-83" value="" style="endArrow=none;dashed=1;html=1;rounded=0;strokeWidth=3;fontSize=16;exitX=1;exitY=0.5;exitDx=0;exitDy=0;entryX=0.5;entryY=1;entryDx=0;entryDy=0;" parent="1" source="oA0V6Ype_RuarI1uSLix-75" target="oA0V6Ype_RuarI1uSLix-76" edge="1">
          <mxGeometry width="50" height="50" relative="1" as="geometry">
            <mxPoint x="1047.96" y="161.03999999999996" as="sourcePoint" />
            <mxPoint x="1120" y="165" as="targetPoint" />
          </mxGeometry>
        </mxCell>
        <mxCell id="k3-JNzKla99REC4c8vxH-2" value="&lt;ul style=&quot;font-size: 13px;&quot;&gt;&lt;li&gt;Terabit Core&lt;/li&gt;&lt;li&gt;100 G Core&lt;/li&gt;&lt;li&gt;International Links&lt;/li&gt;&lt;li&gt;Unspecified Links&lt;/li&gt;&lt;/ul&gt;" style="text;strokeColor=none;fillColor=none;html=1;whiteSpace=wrap;verticalAlign=middle;overflow=hidden;" vertex="1" parent="1">
          <mxGeometry x="990" y="480" width="200" height="80" as="geometry" />
        </mxCell>
        <mxCell id="k3-JNzKla99REC4c8vxH-3" value="" style="endArrow=none;html=1;rounded=0;fontSize=16;strokeWidth=5;fillColor=#f8cecc;strokeColor=#b85450;entryX=0.9;entryY=0.275;entryDx=0;entryDy=0;entryPerimeter=0;" edge="1" parent="1">
          <mxGeometry width="50" height="50" relative="1" as="geometry">
            <mxPoint x="1160" y="500" as="sourcePoint" />
            <mxPoint x="1200" y="500" as="targetPoint" />
          </mxGeometry>
        </mxCell>
        <mxCell id="k3-JNzKla99REC4c8vxH-4" value="" style="endArrow=none;html=1;rounded=0;strokeWidth=3;fontSize=16;fillColor=#fff2cc;strokeColor=#d6b656;" edge="1" parent="1">
          <mxGeometry width="50" height="50" relative="1" as="geometry">
            <mxPoint x="1160" y="520" as="sourcePoint" />
            <mxPoint x="1200" y="520" as="targetPoint" />
          </mxGeometry>
        </mxCell>
        <mxCell id="k3-JNzKla99REC4c8vxH-5" value="" style="endArrow=none;dashed=1;html=1;rounded=0;strokeWidth=3;fontSize=16;" edge="1" parent="1">
          <mxGeometry width="50" height="50" relative="1" as="geometry">
            <mxPoint x="1160" y="540" as="sourcePoint" />
            <mxPoint x="1200" y="540" as="targetPoint" />
          </mxGeometry>
        </mxCell>
        <mxCell id="k3-JNzKla99REC4c8vxH-6" value="" style="endArrow=none;html=1;rounded=0;strokeWidth=3;fontSize=16;fillColor=#dae8fc;strokeColor=#6c8ebf;" edge="1" parent="1">
          <mxGeometry width="50" height="50" relative="1" as="geometry">
            <mxPoint x="1160" y="550" as="sourcePoint" />
            <mxPoint x="1200" y="550" as="targetPoint" />
          </mxGeometry>
        </mxCell>
      </root>
    </mxGraphModel>
  </diagram>
</mxfile>
